# xmcd
#
# Track frame offsets:
#	183
#	17858
#	49570
#	70308
#	108333
#	124083
#	139833
#	168070
#	193458
#	221733
#	241458
#	260433
#	279783
#	289683
#	316233
#
# Disc length: 4461
#
# Revision: 3
# Processed by: cddbd v1.5.1PL0 Copyright (c) Steve Scherf et al.
# Submitted via: CDex 1.50
# Normalized: r2:TDELIM( - )
#
DISCID=df116b0f
DTITLE=Various Artist - Heritage Jazz Sampler
DYEAR=1989
DGENRE=Jazz
TTITLE0=The Duke Ellington Orch - C Jam Blues
TTITLE1=Lionel Hampton - Mostly Blues
TTITLE2=Benny Goodman - Sweet Georgia Brown
TTITLE3=Benny Carter - Over The Rainbow
TTITLE4=Benny Carter-AJO - Sleep
TTITLE5=Dick Hyman - Soft Light and Sweet Music
TTITLE6=Mel Lewis - Soft Lights and Sweet Music
TTITLE7=Louis Bellson - Ode To A Friend
TTITLE8=Lee Konitz - Luv
TTITLE9=Kenny Davern - Love Is The Thing
TTITLE10=Peggy Lee - You Don't Know
TTITLE11=Loren Schoenberg - I cover The Waterfront
TTITLE12=Benny Goodman - I'm Coming Virginia
TTITLE13=Louis Bellson - Village Hangout (Movement 3 from East Side Suite
TTITLE14=Jack Wilkins - B Minor Waltz
EXTD=YEAR: 1989
EXTT0=
EXTT1=
EXTT2=
EXTT3=
EXTT4=
EXTT5=
EXTT6=
EXTT7=
EXTT8=
EXTT9=
EXTT10=
EXTT11=
EXTT12=
EXTT13=
EXTT14=
PLAYORDER=
